<?xml version="1.0" standalone="no"?>
<!DOCTYPE svg PUBLIC "-//W3C//DTD SVG 20010904//EN"
 "http://www.w3.org/TR/2001/REC-SVG-20010904/DTD/svg10.dtd">
<svg version="1.0" xmlns="http://www.w3.org/2000/svg"
 width="700.000000pt" height="700.000000pt" viewBox="0 0 700.000000 700.000000"
 preserveAspectRatio="xMidYMid meet">
<metadata>
Created by potrace 1.14, written by Peter Selinger 2001-2017
</metadata>
<g transform="translate(0.000000,700.000000) scale(0.100000,-0.100000)"
fill="#000000" stroke="none">
<path d="M1600 5944 c-511 -44 -931 -173 -1238 -379 l-72 -48 2 -2158 3 -2158
21 -28 c11 -15 36 -39 55 -51 47 -33 106 -25 237 33 212 93 519 182 794 230
202 34 324 45 527 45 586 0 1125 -136 1488 -376 44 -30 83 -54 86 -54 3 0 35
18 73 40 282 165 822 327 1254 376 176 20 536 15 730 -10 326 -43 616 -126
863 -248 117 -57 161 -60 221 -15 72 55 66 -144 66 2235 l0 2140 -96 62 c-303
196 -708 318 -1203 361 -270 23 -719 2 -980 -46 -315 -59 -636 -180 -847 -321
l-84 -55 -82 54 c-269 178 -615 294 -1049 353 -109 15 -657 27 -769 18z m3945
-599 c196 -23 462 -77 558 -114 l27 -11 -2 -1672 c-3 -1461 -5 -1673 -18
-1670 -8 2 -66 16 -130 32 -321 80 -447 94 -835 95 -307 0 -326 -1 -480 -28
-409 -72 -756 -183 -1042 -332 l-123 -64 0 1678 0 1678 138 71 c148 75 254
119 427 176 236 79 568 151 810 175 124 13 513 5 670 -14z"/>
<path d="M4855 4633 c-358 -22 -769 -108 -1014 -213 l-51 -22 0 -223 c0 -123
3 -230 6 -238 4 -12 25 -6 107 33 248 118 550 192 896 221 281 24 759 -1 971
-50 25 -6 48 -11 53 -11 4 0 7 99 7 219 0 185 -2 220 -15 225 -31 12 -316 46
-460 56 -138 9 -381 11 -500 3z"/>
<path d="M4790 3854 c-318 -28 -647 -98 -895 -191 l-100 -38 -3 -243 -2 -242
77 38 c161 80 354 144 568 187 390 78 913 81 1303 6 l92 -18 0 222 0 222 -72
12 c-240 38 -302 43 -608 46 -173 1 -335 1 -360 -1z"/>
<path d="M4880 3079 c-365 -20 -685 -83 -987 -195 l-103 -38 0 -243 0 -243 80
40 c328 165 722 244 1225 244 265 1 394 -9 600 -45 61 -10 116 -19 123 -19 9
0 12 50 12 219 l0 219 -67 12 c-139 24 -289 40 -461 50 -195 11 -212 11 -422
-1z"/>
</g>
</svg>
